<svg width="200" height="101" viewBox="0 0 200 101" fill="none" xmlns="http://www.w3.org/2000/svg">
<path d="M94.2051 91.4C92.5384 91.4 91.1384 91.0833 90.0051 90.45C88.8717 89.7833 88.0217 88.85 87.4551 87.65C86.8884 86.4167 86.6051 84.9333 86.6051 83.2V68.6H82.5551C82.2217 68.6 81.9551 68.5167 81.7551 68.35C81.5551 68.1833 81.4551 67.9667 81.4551 67.7C81.4551 67.4333 81.5551 67.2167 81.7551 67.05C81.9551 66.8833 82.2217 66.8 82.5551 66.8H86.6051V60.05C86.6051 59.6833 86.6884 59.4167 86.8551 59.25C87.0551 59.05 87.3217 58.95 87.6551 58.95C87.9884 58.95 88.2384 59.05 88.4051 59.25C88.6051 59.4167 88.7051 59.6833 88.7051 60.05V66.8H95.8551C96.2217 66.8 96.4884 66.8833 96.6551 67.05C96.8551 67.2167 96.9551 67.4333 96.9551 67.7C96.9551 67.9667 96.8551 68.1833 96.6551 68.35C96.4884 68.5167 96.2217 68.6 95.8551 68.6H88.7051V82.75C88.7051 84.9167 89.1384 86.5833 90.0051 87.75C90.8717 88.8833 92.3217 89.45 94.3551 89.45C95.0551 89.45 95.6217 89.3833 96.0551 89.25C96.5217 89.0833 96.9051 89 97.2051 89C97.4051 89 97.5717 89.0833 97.7051 89.25C97.8717 89.4167 97.9551 89.65 97.9551 89.95C97.9551 90.1167 97.9051 90.3 97.8051 90.5C97.7384 90.6667 97.5884 90.7833 97.3551 90.85C97.0217 90.9833 96.5384 91.1 95.9051 91.2C95.3051 91.3333 94.7384 91.4 94.2051 91.4ZM114.215 100.3C113.915 100.3 113.682 100.217 113.515 100.05C113.348 99.8833 113.265 99.6667 113.265 99.4C113.265 99.1333 113.315 98.8667 113.415 98.6L116.865 90.65V91.65L106.865 68.25C106.732 67.9167 106.682 67.6333 106.715 67.4C106.748 67.1333 106.848 66.9167 107.015 66.75C107.215 66.5833 107.482 66.5 107.815 66.5C108.115 66.5 108.332 66.5833 108.465 66.75C108.632 66.8833 108.782 67.0833 108.915 67.35L118.415 90.3H117.215L126.765 67.35C126.898 67.05 127.032 66.8333 127.165 66.7C127.332 66.5667 127.582 66.5 127.915 66.5C128.248 66.5 128.482 66.5833 128.615 66.75C128.782 66.9167 128.865 67.1333 128.865 67.4C128.898 67.6333 128.848 67.9 128.715 68.2L115.415 99.4C115.282 99.7333 115.132 99.9667 114.965 100.1C114.798 100.233 114.548 100.3 114.215 100.3ZM143.21 100.3C142.877 100.3 142.61 100.2 142.41 100C142.243 99.8 142.16 99.5333 142.16 99.2V67.6C142.16 67.2333 142.243 66.9667 142.41 66.8C142.61 66.6 142.877 66.5 143.21 66.5C143.543 66.5 143.793 66.6 143.96 66.8C144.16 66.9667 144.26 67.2333 144.26 67.6V73.1H143.71C144.277 71.0333 145.36 69.4 146.96 68.2C148.593 67 150.577 66.4 152.91 66.4C155.11 66.4 157.01 66.9167 158.61 67.95C160.21 68.95 161.443 70.3833 162.31 72.25C163.21 74.1167 163.66 76.3333 163.66 78.9C163.66 81.4333 163.227 83.65 162.36 85.55C161.493 87.4167 160.243 88.8667 158.61 89.9C157.01 90.9 155.11 91.4 152.91 91.4C150.577 91.4 148.593 90.8 146.96 89.6C145.36 88.3667 144.277 86.7333 143.71 84.7H144.26V99.2C144.26 99.5333 144.16 99.8 143.96 100C143.793 100.2 143.543 100.3 143.21 100.3ZM152.86 89.45C154.627 89.45 156.16 89.0333 157.46 88.2C158.76 87.3667 159.76 86.1667 160.46 84.6C161.16 83 161.51 81.1 161.51 78.9C161.51 75.5667 160.727 72.9833 159.16 71.15C157.627 69.2833 155.527 68.35 152.86 68.35C151.093 68.35 149.56 68.7667 148.26 69.6C146.96 70.4333 145.96 71.6333 145.26 73.2C144.56 74.7667 144.21 76.6667 144.21 78.9C144.21 82.2333 144.993 84.8333 146.56 86.7C148.127 88.5333 150.227 89.45 152.86 89.45ZM188.128 91.4C185.728 91.4 183.661 90.9 181.928 89.9C180.195 88.9 178.845 87.4833 177.878 85.65C176.945 83.7833 176.478 81.5667 176.478 79C176.478 76.4667 176.945 74.2667 177.878 72.4C178.845 70.5 180.161 69.0333 181.828 68C183.528 66.9333 185.478 66.4 187.678 66.4C189.245 66.4 190.628 66.6667 191.828 67.2C193.061 67.7333 194.095 68.5 194.928 69.5C195.795 70.5 196.445 71.7167 196.878 73.15C197.345 74.5833 197.578 76.2 197.578 78C197.578 78.4333 197.478 78.7667 197.278 79C197.111 79.2 196.845 79.3 196.478 79.3H177.828V77.45H196.478L195.628 78.05C195.628 76.0167 195.328 74.2833 194.728 72.85C194.128 71.3833 193.228 70.2667 192.028 69.5C190.861 68.7 189.395 68.3 187.628 68.3C185.695 68.3 184.045 68.7667 182.678 69.7C181.345 70.6 180.328 71.8333 179.628 73.4C178.961 74.9667 178.628 76.75 178.628 78.75V79C178.628 82.3333 179.445 84.9167 181.078 86.75C182.745 88.55 185.061 89.45 188.028 89.45C189.361 89.45 190.611 89.2833 191.778 88.95C192.945 88.5833 194.095 87.95 195.228 87.05C195.461 86.85 195.695 86.75 195.928 86.75C196.195 86.7167 196.411 86.7667 196.578 86.9C196.778 87 196.911 87.15 196.978 87.35C197.078 87.5167 197.095 87.7167 197.028 87.95C196.961 88.1833 196.795 88.4 196.528 88.6C195.495 89.4667 194.228 90.15 192.728 90.65C191.228 91.15 189.695 91.4 188.128 91.4Z" fill="black"/>
<path d="M13.45 41.4C11.25 41.4 9.33333 40.8833 7.7 39.85C6.1 38.8167 4.85 37.3667 3.95 35.5C3.08333 33.6333 2.65 31.4333 2.65 28.9C2.65 27 2.9 25.2833 3.4 23.75C3.9 22.2167 4.61667 20.9 5.55 19.8C6.51667 18.7 7.66667 17.8667 9 17.3C10.3333 16.7 11.8167 16.4 13.45 16.4C15.65 16.4 17.55 16.9167 19.15 17.95C20.7833 18.9833 22.0333 20.4333 22.9 22.3C23.8 24.1667 24.25 26.3667 24.25 28.9C24.25 30.8 24 32.5167 23.5 34.05C23 35.5833 22.2667 36.9 21.3 38C20.3667 39.1 19.2333 39.95 17.9 40.55C16.6 41.1167 15.1167 41.4 13.45 41.4ZM13.45 39.45C15.2167 39.45 16.75 39.0333 18.05 38.2C19.35 37.3667 20.35 36.1667 21.05 34.6C21.75 33 22.1 31.1 22.1 28.9C22.1 25.5667 21.3167 22.9833 19.75 21.15C18.2167 19.2833 16.1167 18.35 13.45 18.35C11.6833 18.35 10.15 18.7667 8.85 19.6C7.55 20.4333 6.55 21.6333 5.85 23.2C5.15 24.7667 4.8 26.6667 4.8 28.9C4.8 32.2333 5.58333 34.8333 7.15 36.7C8.71667 38.5333 10.8167 39.45 13.45 39.45ZM39.7043 50.3C39.371 50.3 39.1043 50.2 38.9043 50C38.7376 49.8 38.6543 49.5333 38.6543 49.2V17.6C38.6543 17.2333 38.7376 16.9667 38.9043 16.8C39.1043 16.6 39.371 16.5 39.7043 16.5C40.0376 16.5 40.2876 16.6 40.4543 16.8C40.6543 16.9667 40.7543 17.2333 40.7543 17.6V23.1H40.2043C40.771 21.0333 41.8543 19.4 43.4543 18.2C45.0876 17 47.071 16.4 49.4043 16.4C51.6043 16.4 53.5043 16.9167 55.1043 17.95C56.7043 18.95 57.9376 20.3833 58.8043 22.25C59.7043 24.1167 60.1543 26.3333 60.1543 28.9C60.1543 31.4333 59.721 33.65 58.8543 35.55C57.9876 37.4167 56.7376 38.8667 55.1043 39.9C53.5043 40.9 51.6043 41.4 49.4043 41.4C47.071 41.4 45.0876 40.8 43.4543 39.6C41.8543 38.3667 40.771 36.7333 40.2043 34.7H40.7543V49.2C40.7543 49.5333 40.6543 49.8 40.4543 50C40.2876 50.2 40.0376 50.3 39.7043 50.3ZM49.3543 39.45C51.121 39.45 52.6543 39.0333 53.9543 38.2C55.2543 37.3667 56.2543 36.1667 56.9543 34.6C57.6543 33 58.0043 31.1 58.0043 28.9C58.0043 25.5667 57.221 22.9833 55.6543 21.15C54.121 19.2833 52.021 18.35 49.3543 18.35C47.5876 18.35 46.0543 18.7667 44.7543 19.6C43.4543 20.4333 42.4543 21.6333 41.7543 23.2C41.0543 24.7667 40.7043 26.6667 40.7043 28.9C40.7043 32.2333 41.4876 34.8333 43.0543 36.7C44.621 38.5333 46.721 39.45 49.3543 39.45ZM84.6223 41.4C82.2223 41.4 80.1556 40.9 78.4223 39.9C76.6889 38.9 75.3389 37.4833 74.3723 35.65C73.4389 33.7833 72.9723 31.5667 72.9723 29C72.9723 26.4667 73.4389 24.2667 74.3723 22.4C75.3389 20.5 76.6556 19.0333 78.3223 18C80.0223 16.9333 81.9723 16.4 84.1723 16.4C85.7389 16.4 87.1223 16.6667 88.3223 17.2C89.5556 17.7333 90.5889 18.5 91.4223 19.5C92.2889 20.5 92.9389 21.7167 93.3723 23.15C93.8389 24.5833 94.0723 26.2 94.0723 28C94.0723 28.4333 93.9723 28.7667 93.7723 29C93.6056 29.2 93.3389 29.3 92.9723 29.3H74.3223V27.45H92.9723L92.1223 28.05C92.1223 26.0167 91.8223 24.2833 91.2223 22.85C90.6223 21.3833 89.7223 20.2667 88.5223 19.5C87.3556 18.7 85.8889 18.3 84.1223 18.3C82.1889 18.3 80.5389 18.7667 79.1723 19.7C77.8389 20.6 76.8223 21.8333 76.1223 23.4C75.4556 24.9667 75.1223 26.75 75.1223 28.75V29C75.1223 32.3333 75.9389 34.9167 77.5723 36.75C79.2389 38.55 81.5556 39.45 84.5223 39.45C85.8556 39.45 87.1056 39.2833 88.2723 38.95C89.4389 38.5833 90.5889 37.95 91.7223 37.05C91.9556 36.85 92.1889 36.75 92.4223 36.75C92.6889 36.7167 92.9056 36.7667 93.0723 36.9C93.2723 37 93.4056 37.15 93.4723 37.35C93.5723 37.5167 93.5889 37.7167 93.5223 37.95C93.4556 38.1833 93.2889 38.4 93.0223 38.6C91.9889 39.4667 90.7223 40.15 89.2223 40.65C87.7223 41.15 86.1889 41.4 84.6223 41.4ZM109.294 41.3C108.961 41.3 108.694 41.2 108.494 41C108.327 40.8 108.244 40.5333 108.244 40.2V17.6C108.244 17.2333 108.327 16.9667 108.494 16.8C108.694 16.6 108.961 16.5 109.294 16.5C109.627 16.5 109.877 16.6 110.044 16.8C110.211 16.9667 110.294 17.2333 110.294 17.6V22.7H109.744C110.411 20.6 111.561 19.0333 113.194 18C114.827 16.9333 116.711 16.4 118.844 16.4C120.777 16.4 122.377 16.7333 123.644 17.4C124.944 18.0667 125.911 19.0833 126.544 20.45C127.177 21.8167 127.494 23.5333 127.494 25.6V40.2C127.494 40.5333 127.394 40.8 127.194 41C127.027 41.2 126.777 41.3 126.444 41.3C126.111 41.3 125.844 41.2 125.644 41C125.477 40.8 125.394 40.5333 125.394 40.2V25.8C125.394 23.2333 124.877 21.35 123.844 20.15C122.811 18.95 121.144 18.35 118.844 18.35C116.277 18.35 114.211 19.15 112.644 20.75C111.111 22.3167 110.344 24.4333 110.344 27.1V40.2C110.344 40.9333 109.994 41.3 109.294 41.3Z" fill="black"/>
</svg>
